<svg width="456" height="456" viewBox="0 0 456 456" fill="none" xmlns="http://www.w3.org/2000/svg">
<rect x="0.5" y="0.5" width="455" height="455" rx="227.5" fill="url(#paint0_radial_1_11)" stroke="#7000FF"/>
<path d="M160.169 160V176.875H295V160H160.169ZM160.169 193.75V293.481C160.169 294.325 160.843 295 161.685 295H293.315C294.157 295 294.831 294.325 294.831 293.481V193.75H244.775V211.131H210.562V193.75H160H160.169Z" fill="white" fill-opacity="0.7"/>
<mask id="path-3-outside-1_1_11" maskUnits="userSpaceOnUse" x="192" y="232" width="70" height="39" fill="black">
<rect fill="white" x="192" y="232" width="70" height="39"/>
<path d="M215.008 239.211L210.156 243.5C208.453 241.125 206.719 239.938 204.953 239.938C204.094 239.938 203.391 240.172 202.844 240.641C202.297 241.094 202.023 241.609 202.023 242.188C202.023 242.766 202.219 243.312 202.609 243.828C203.141 244.516 204.742 245.992 207.414 248.258C209.914 250.352 211.43 251.672 211.961 252.219C213.289 253.562 214.227 254.852 214.773 256.086C215.336 257.305 215.617 258.641 215.617 260.094C215.617 262.922 214.641 265.258 212.688 267.102C210.734 268.945 208.188 269.867 205.047 269.867C202.594 269.867 200.453 269.266 198.625 268.062C196.812 266.859 195.258 264.969 193.961 262.391L199.469 259.062C201.125 262.109 203.031 263.633 205.188 263.633C206.312 263.633 207.258 263.305 208.023 262.648C208.789 261.992 209.172 261.234 209.172 260.375C209.172 259.594 208.883 258.812 208.305 258.031C207.727 257.25 206.453 256.055 204.484 254.445C200.734 251.383 198.312 249.023 197.219 247.367C196.125 245.695 195.578 244.031 195.578 242.375C195.578 239.984 196.484 237.938 198.297 236.234C200.125 234.516 202.375 233.656 205.047 233.656C206.766 233.656 208.398 234.055 209.945 234.852C211.508 235.648 213.195 237.102 215.008 239.211ZM225.25 234.523H231.672L239.641 258.57L247.727 234.523H254.055L259.867 269H253.539L249.836 247.227L242.5 269H236.711L229.469 247.227L225.695 269H219.297L225.25 234.523Z"/>
</mask>
<path d="M215.008 239.211L210.156 243.5C208.453 241.125 206.719 239.938 204.953 239.938C204.094 239.938 203.391 240.172 202.844 240.641C202.297 241.094 202.023 241.609 202.023 242.188C202.023 242.766 202.219 243.312 202.609 243.828C203.141 244.516 204.742 245.992 207.414 248.258C209.914 250.352 211.43 251.672 211.961 252.219C213.289 253.562 214.227 254.852 214.773 256.086C215.336 257.305 215.617 258.641 215.617 260.094C215.617 262.922 214.641 265.258 212.688 267.102C210.734 268.945 208.188 269.867 205.047 269.867C202.594 269.867 200.453 269.266 198.625 268.062C196.812 266.859 195.258 264.969 193.961 262.391L199.469 259.062C201.125 262.109 203.031 263.633 205.188 263.633C206.312 263.633 207.258 263.305 208.023 262.648C208.789 261.992 209.172 261.234 209.172 260.375C209.172 259.594 208.883 258.812 208.305 258.031C207.727 257.25 206.453 256.055 204.484 254.445C200.734 251.383 198.312 249.023 197.219 247.367C196.125 245.695 195.578 244.031 195.578 242.375C195.578 239.984 196.484 237.938 198.297 236.234C200.125 234.516 202.375 233.656 205.047 233.656C206.766 233.656 208.398 234.055 209.945 234.852C211.508 235.648 213.195 237.102 215.008 239.211ZM225.25 234.523H231.672L239.641 258.57L247.727 234.523H254.055L259.867 269H253.539L249.836 247.227L242.5 269H236.711L229.469 247.227L225.695 269H219.297L225.25 234.523Z" fill="#2F1254"/>
<path d="M215.008 239.211L215.67 239.96L216.409 239.307L215.766 238.559L215.008 239.211ZM210.156 243.5L209.344 244.083L209.989 244.983L210.819 244.249L210.156 243.5ZM202.844 240.641L203.482 241.411L203.488 241.405L203.495 241.4L202.844 240.641ZM202.609 243.828L201.812 244.432L201.818 244.44L202.609 243.828ZM207.414 248.258L206.767 249.021L206.772 249.024L207.414 248.258ZM211.961 252.219L211.244 252.916L211.25 252.922L211.961 252.219ZM214.773 256.086L213.859 256.491L213.862 256.498L213.865 256.505L214.773 256.086ZM198.625 268.062L198.072 268.896L198.075 268.898L198.625 268.062ZM193.961 262.391L193.444 261.535L192.652 262.013L193.068 262.84L193.961 262.391ZM199.469 259.062L200.347 258.585L199.847 257.665L198.952 258.207L199.469 259.062ZM204.484 254.445L205.117 253.671L205.117 253.671L204.484 254.445ZM197.219 247.367L196.382 247.915L196.384 247.918L197.219 247.367ZM198.297 236.234L198.982 236.963L198.982 236.963L198.297 236.234ZM209.945 234.852L209.487 235.741L209.491 235.742L209.945 234.852ZM214.345 238.462L209.494 242.751L210.819 244.249L215.67 239.96L214.345 238.462ZM210.969 242.917C209.201 240.452 207.206 238.938 204.953 238.938V240.938C206.231 240.938 207.705 241.798 209.344 244.083L210.969 242.917ZM204.953 238.938C203.903 238.938 202.955 239.228 202.193 239.881L203.495 241.4C203.827 241.115 204.284 240.938 204.953 240.938V238.938ZM202.206 239.871C201.487 240.466 201.023 241.244 201.023 242.188H203.023C203.023 241.974 203.107 241.721 203.482 241.411L202.206 239.871ZM201.023 242.188C201.023 243.009 201.306 243.764 201.812 244.432L203.406 243.224C203.131 242.861 203.023 242.522 203.023 242.188H201.023ZM201.818 244.44C202.141 244.858 202.732 245.45 203.531 246.186C204.346 246.938 205.426 247.883 206.767 249.021L208.061 247.495C206.73 246.367 205.673 245.441 204.887 244.716C204.084 243.976 203.609 243.486 203.401 243.217L201.818 244.44ZM206.772 249.024C209.289 251.132 210.757 252.414 211.244 252.916L212.678 251.522C212.103 250.929 210.54 249.571 208.056 247.491L206.772 249.024ZM211.25 252.922C212.524 254.211 213.377 255.402 213.859 256.491L215.688 255.681C215.076 254.301 214.054 252.914 212.672 251.516L211.25 252.922ZM213.865 256.505C214.362 257.582 214.617 258.773 214.617 260.094H216.617C216.617 258.508 216.309 257.028 215.681 255.667L213.865 256.505ZM214.617 260.094C214.617 262.663 213.742 264.73 212.001 266.374L213.374 267.829C215.539 265.785 216.617 263.181 216.617 260.094H214.617ZM212.001 266.374C210.265 268.014 207.978 268.867 205.047 268.867V270.867C208.397 270.867 211.204 269.877 213.374 267.829L212.001 266.374ZM205.047 268.867C202.765 268.867 200.82 268.31 199.175 267.227L198.075 268.898C200.086 270.221 202.423 270.867 205.047 270.867V268.867ZM199.178 267.229C197.55 266.149 196.098 264.413 194.854 261.941L193.068 262.84C194.418 265.524 196.075 267.57 198.072 268.896L199.178 267.229ZM194.478 263.247L199.986 259.918L198.952 258.207L193.444 261.535L194.478 263.247ZM198.59 259.54C200.308 262.7 202.476 264.633 205.188 264.633V262.633C203.586 262.633 201.942 261.519 200.347 258.585L198.59 259.54ZM205.188 264.633C206.522 264.633 207.706 264.237 208.674 263.408L207.373 261.889C206.809 262.372 206.103 262.633 205.188 262.633V264.633ZM208.674 263.408C209.619 262.598 210.172 261.578 210.172 260.375H208.172C208.172 260.891 207.959 261.386 207.373 261.889L208.674 263.408ZM210.172 260.375C210.172 259.332 209.782 258.347 209.109 257.436L207.501 258.626C207.983 259.278 208.172 259.855 208.172 260.375H210.172ZM209.109 257.436C208.446 256.542 207.079 255.275 205.117 253.671L203.851 255.22C205.827 256.834 207.007 257.958 207.501 258.626L209.109 257.436ZM205.117 253.671C201.365 250.607 199.054 248.331 198.053 246.816L196.384 247.918C197.571 249.715 200.104 252.159 203.852 255.22L205.117 253.671ZM198.056 246.82C197.046 245.277 196.578 243.8 196.578 242.375H194.578C194.578 244.263 195.204 246.114 196.382 247.915L198.056 246.82ZM196.578 242.375C196.578 240.273 197.361 238.486 198.982 236.963L197.612 235.506C195.608 237.389 194.578 239.696 194.578 242.375H196.578ZM198.982 236.963C200.612 235.431 202.611 234.656 205.047 234.656V232.656C202.139 232.656 199.638 233.601 197.612 235.506L198.982 236.963ZM205.047 234.656C206.604 234.656 208.08 235.016 209.487 235.741L210.403 233.963C208.717 233.094 206.927 232.656 205.047 232.656V234.656ZM209.491 235.742C210.89 236.456 212.478 237.801 214.249 239.863L215.766 238.559C213.913 236.402 212.126 234.841 210.4 233.961L209.491 235.742ZM225.25 234.523V233.523H224.408L224.265 234.353L225.25 234.523ZM231.672 234.523L232.621 234.209L232.394 233.523H231.672V234.523ZM239.641 258.57L238.691 258.885L239.634 261.728L240.588 258.889L239.641 258.57ZM247.727 234.523V233.523H247.008L246.779 234.205L247.727 234.523ZM254.055 234.523L255.041 234.357L254.9 233.523H254.055V234.523ZM259.867 269V270H261.05L260.853 268.834L259.867 269ZM253.539 269L252.553 269.168L252.695 270H253.539V269ZM249.836 247.227L250.822 247.059L248.888 246.907L249.836 247.227ZM242.5 269V270H243.218L243.448 269.319L242.5 269ZM236.711 269L235.762 269.316L235.99 270H236.711V269ZM229.469 247.227L230.418 246.911L228.483 247.056L229.469 247.227ZM225.695 269V270H226.537L226.681 269.171L225.695 269ZM219.297 269L218.311 268.83L218.109 270H219.297V269ZM225.25 235.523H231.672V233.523H225.25V235.523ZM230.723 234.838L238.691 258.885L240.59 258.256L232.621 234.209L230.723 234.838ZM240.588 258.889L248.674 234.842L246.779 234.205L238.693 258.252L240.588 258.889ZM247.727 235.523H254.055V233.523H247.727V235.523ZM253.069 234.69L258.881 269.166L260.853 268.834L255.041 234.357L253.069 234.69ZM259.867 268H253.539V270H259.867V268ZM254.525 268.832L250.822 247.059L248.85 247.394L252.553 269.168L254.525 268.832ZM248.888 246.907L241.552 268.681L243.448 269.319L250.784 247.546L248.888 246.907ZM242.5 268H236.711V270H242.5V268ZM237.66 268.684L230.418 246.911L228.52 247.542L235.762 269.316L237.66 268.684ZM228.483 247.056L224.71 268.829L226.681 269.171L230.454 247.397L228.483 247.056ZM225.695 268H219.297V270H225.695V268ZM220.282 269.17L226.235 234.694L224.265 234.353L218.311 268.83L220.282 269.17Z" fill="#8C39BE" mask="url(#path-3-outside-1_1_11)"/>
<defs>
<radialGradient id="paint0_radial_1_11" cx="0" cy="0" r="1" gradientUnits="userSpaceOnUse" gradientTransform="translate(228 228) rotate(90) scale(228)">
<stop stop-color="#9640D9"/>
<stop offset="0.955" stop-color="#41256D" stop-opacity="0.75"/>
<stop offset="1" stop-color="#325339" stop-opacity="0"/>
</radialGradient>
</defs>
</svg>
